<?xml version="1.0" encoding="UTF-8" standalone="no"?>
<!DOCTYPE svg PUBLIC "-//W3C//DTD SVG 1.1//EN"
 "http://www.w3.org/Graphics/SVG/1.1/DTD/svg11.dtd">
<!-- Generated by graphviz version 2.40.1 (20161225.0304)
 -->
<!-- Title: feature_interaction_illustration2 Pages: 1 -->
<svg width="188pt" height="188pt"
 viewBox="0.00 0.00 187.60 188.00" xmlns="http://www.w3.org/2000/svg" xmlns:xlink="http://www.w3.org/1999/xlink">
<g id="graph0" class="graph" transform="scale(1 1) rotate(0) translate(4 184)">
<title>feature_interaction_illustration2</title>
<polygon fill="#ffffff" stroke="transparent" points="-4,4 -4,-184 183.5975,-184 183.5975,4 -4,4"/>
<!-- 0 -->
<g id="node1" class="node">
<title>0</title>
<polygon fill="none" stroke="#000000" points="144.5,-180 69.5,-180 69.5,-144 144.5,-144 144.5,-180"/>
<text text-anchor="start" x="77.5" y="-159.3" font-family="Helvetica,sans-Serif" font-size="14.00" fill="#000000">x</text>
<text text-anchor="start" x="84.5" y="-159.3" font-family="Helvetica,sans-Serif" baseline-shift="sub" font-size="11.00" fill="#000000">0</text>
<text text-anchor="start" x="90.5" y="-159.3" font-family="Helvetica,sans-Serif" font-size="14.00" fill="#000000"> &lt; 5.0 ?</text>
</g>
<!-- 1 -->
<g id="node2" class="node">
<title>1</title>
<polygon fill="none" stroke="#000000" points="104,-108 24,-108 24,-72 104,-72 104,-108"/>
<text text-anchor="start" x="32" y="-87.3" font-family="Helvetica,sans-Serif" font-size="14.00" fill="#000000">x</text>
<text text-anchor="start" x="39" y="-87.3" font-family="Helvetica,sans-Serif" baseline-shift="sub" font-size="11.00" fill="#000000">2</text>
<text text-anchor="start" x="45" y="-87.3" font-family="Helvetica,sans-Serif" font-size="14.00" fill="#000000"> &lt; &#45;3.0 ?</text>
</g>
<!-- 0&#45;&gt;1 -->
<g id="edge1" class="edge">
<title>0&#45;&gt;1</title>
<path fill="none" stroke="#000000" d="M96.1493,-143.8314C91.2977,-135.7079 85.4783,-125.9637 80.132,-117.0118"/>
<polygon fill="#000000" stroke="#000000" points="83.1292,-115.2041 74.9968,-108.4133 77.1194,-118.7933 83.1292,-115.2041"/>
<text text-anchor="middle" x="70.1064" y="-124.1062" font-family="Helvetica,sans-Serif" font-size="14.00" fill="#000000">Yes/Missing &#160;&#160;&#160;&#160;&#160;&#160;&#160;&#160;&#160;&#160;</text>
</g>
<!-- 2 -->
<g id="node3" class="node">
<title>2</title>
<ellipse fill="none" stroke="#000000" cx="151" cy="-90" rx="28.6953" ry="18"/>
<text text-anchor="middle" x="151" y="-86.3" font-family="Helvetica,sans-Serif" font-size="14.00" fill="#000000">+0.6</text>
</g>
<!-- 0&#45;&gt;2 -->
<g id="edge2" class="edge">
<title>0&#45;&gt;2</title>
<path fill="none" stroke="#000000" d="M118.1031,-143.8314C123.3506,-135.2444 129.7048,-124.8466 135.4241,-115.4878"/>
<polygon fill="#000000" stroke="#000000" points="138.4281,-117.2842 140.6562,-106.9263 132.4551,-113.634 138.4281,-117.2842"/>
<text text-anchor="middle" x="145.349" y="-122.6679" font-family="Helvetica,sans-Serif" font-size="14.00" fill="#000000">No</text>
</g>
<!-- 3 -->
<g id="node4" class="node">
<title>3</title>
<ellipse fill="none" stroke="#000000" cx="27" cy="-18" rx="27" ry="18"/>
<text text-anchor="middle" x="27" y="-14.3" font-family="Helvetica,sans-Serif" font-size="14.00" fill="#000000">&#45;0.4</text>
</g>
<!-- 1&#45;&gt;3 -->
<g id="edge3" class="edge">
<title>1&#45;&gt;3</title>
<path fill="none" stroke="#000000" d="M54.6633,-71.8314C50.4051,-63.5451 45.2804,-53.5727 40.6051,-44.4748"/>
<polygon fill="#000000" stroke="#000000" points="43.6345,-42.7123 35.9508,-35.4177 37.4085,-45.9118 43.6345,-42.7123"/>
<text text-anchor="middle" x="29.8362" y="-50.7601" font-family="Helvetica,sans-Serif" font-size="14.00" fill="#000000">Yes</text>
</g>
<!-- 4 -->
<g id="node5" class="node">
<title>4</title>
<ellipse fill="none" stroke="#000000" cx="101" cy="-18" rx="28.6953" ry="18"/>
<text text-anchor="middle" x="101" y="-14.3" font-family="Helvetica,sans-Serif" font-size="14.00" fill="#000000">+1.2</text>
</g>
<!-- 1&#45;&gt;4 -->
<g id="edge4" class="edge">
<title>1&#45;&gt;4</title>
<path fill="none" stroke="#000000" d="M73.3367,-71.8314C77.5949,-63.5451 82.7196,-53.5727 87.3949,-44.4748"/>
<polygon fill="#000000" stroke="#000000" points="90.5915,-45.9118 92.0492,-35.4177 84.3655,-42.7123 90.5915,-45.9118"/>
<text text-anchor="middle" x="98.1638" y="-50.7601" font-family="Helvetica,sans-Serif" font-size="14.00" fill="#000000"> &#160;&#160;&#160;&#160;&#160;&#160;&#160;&#160;&#160;&#160;No/Missing</text>
</g>
</g>
</svg>
