<?xml version="1.0" encoding="UTF-8" standalone="no"?>
<!DOCTYPE svg PUBLIC "-//W3C//DTD SVG 1.1//EN"
 "http://www.w3.org/Graphics/SVG/1.1/DTD/svg11.dtd">
<!-- Generated by graphviz version 2.40.1 (20161225.0304)
 -->
<!-- Title: feature_interaction_illustration3 Pages: 1 -->
<svg width="188pt" height="188pt"
 viewBox="0.00 0.00 187.60 188.00" xmlns="http://www.w3.org/2000/svg" xmlns:xlink="http://www.w3.org/1999/xlink">
<g id="graph0" class="graph" transform="scale(1 1) rotate(0) translate(4 184)">
<title>feature_interaction_illustration3</title>
<polygon fill="#ffffff" stroke="transparent" points="-4,4 -4,-184 183.5975,-184 183.5975,4 -4,4"/>
<!-- 0 -->
<g id="node1" class="node">
<title>0</title>
<polygon fill="none" stroke="#000000" points="109.0975,-180 34.0975,-180 34.0975,-144 109.0975,-144 109.0975,-180"/>
<text text-anchor="start" x="42.0975" y="-159.3" font-family="Helvetica,sans-Serif" font-size="14.00" fill="#000000">x</text>
<text text-anchor="start" x="49.0975" y="-159.3" font-family="Helvetica,sans-Serif" baseline-shift="sub" font-size="11.00" fill="#000000">3</text>
<text text-anchor="start" x="55.0975" y="-159.3" font-family="Helvetica,sans-Serif" font-size="14.00" fill="#000000"> &lt; 2.5 ?</text>
</g>
<!-- 1 -->
<g id="node2" class="node">
<title>1</title>
<ellipse fill="none" stroke="#000000" cx="28.5975" cy="-90" rx="28.6953" ry="18"/>
<text text-anchor="middle" x="28.5975" y="-86.3" font-family="Helvetica,sans-Serif" font-size="14.00" fill="#000000">+1.6</text>
</g>
<!-- 0&#45;&gt;1 -->
<g id="edge1" class="edge">
<title>0&#45;&gt;1</title>
<path fill="none" stroke="#000000" d="M60.7467,-143.8314C55.6713,-135.3329 49.5366,-125.0608 43.9924,-115.7776"/>
<polygon fill="#000000" stroke="#000000" points="46.8386,-113.7171 38.7062,-106.9263 40.8288,-117.3063 46.8386,-113.7171"/>
<text text-anchor="middle" x="33.8158" y="-122.6192" font-family="Helvetica,sans-Serif" font-size="14.00" fill="#000000">Yes</text>
</g>
<!-- 2 -->
<g id="node3" class="node">
<title>2</title>
<polygon fill="none" stroke="#000000" points="155.5975,-108 75.5975,-108 75.5975,-72 155.5975,-72 155.5975,-108"/>
<text text-anchor="start" x="83.5975" y="-87.3" font-family="Helvetica,sans-Serif" font-size="14.00" fill="#000000">x</text>
<text text-anchor="start" x="90.5975" y="-87.3" font-family="Helvetica,sans-Serif" baseline-shift="sub" font-size="11.00" fill="#000000">2</text>
<text text-anchor="start" x="96.5975" y="-87.3" font-family="Helvetica,sans-Serif" font-size="14.00" fill="#000000"> &lt; &#45;1.2 ?</text>
</g>
<!-- 0&#45;&gt;2 -->
<g id="edge2" class="edge">
<title>0&#45;&gt;2</title>
<path fill="none" stroke="#000000" d="M82.7005,-143.8314C87.6649,-135.7079 93.6196,-125.9637 99.0903,-117.0118"/>
<polygon fill="#000000" stroke="#000000" points="102.1169,-118.7712 104.3449,-108.4133 96.1439,-115.121 102.1169,-118.7712"/>
<text text-anchor="middle" x="109.0377" y="-124.1549" font-family="Helvetica,sans-Serif" font-size="14.00" fill="#000000"> &#160;&#160;&#160;&#160;&#160;&#160;&#160;&#160;&#160;&#160;No/Missing</text>
</g>
<!-- 3 -->
<g id="node4" class="node">
<title>3</title>
<ellipse fill="none" stroke="#000000" cx="78.5975" cy="-18" rx="28.6953" ry="18"/>
<text text-anchor="middle" x="78.5975" y="-14.3" font-family="Helvetica,sans-Serif" font-size="14.00" fill="#000000">+0.1</text>
</g>
<!-- 2&#45;&gt;3 -->
<g id="edge3" class="edge">
<title>2&#45;&gt;3</title>
<path fill="none" stroke="#000000" d="M106.2608,-71.8314C102.0026,-63.5451 96.8779,-53.5727 92.2026,-44.4748"/>
<polygon fill="#000000" stroke="#000000" points="95.232,-42.7123 87.5482,-35.4177 89.006,-45.9118 95.232,-42.7123"/>
<text text-anchor="middle" x="81.4337" y="-50.7601" font-family="Helvetica,sans-Serif" font-size="14.00" fill="#000000">Yes/Missing &#160;&#160;&#160;&#160;&#160;&#160;&#160;&#160;&#160;&#160;</text>
</g>
<!-- 4 -->
<g id="node5" class="node">
<title>4</title>
<ellipse fill="none" stroke="#000000" cx="152.5975" cy="-18" rx="27" ry="18"/>
<text text-anchor="middle" x="152.5975" y="-14.3" font-family="Helvetica,sans-Serif" font-size="14.00" fill="#000000">&#45;0.3</text>
</g>
<!-- 2&#45;&gt;4 -->
<g id="edge4" class="edge">
<title>2&#45;&gt;4</title>
<path fill="none" stroke="#000000" d="M124.9341,-71.8314C129.1923,-63.5451 134.3171,-53.5727 138.9924,-44.4748"/>
<polygon fill="#000000" stroke="#000000" points="142.189,-45.9118 143.6467,-35.4177 135.9629,-42.7123 142.189,-45.9118"/>
<text text-anchor="middle" x="149.7612" y="-50.7601" font-family="Helvetica,sans-Serif" font-size="14.00" fill="#000000">No</text>
</g>
</g>
</svg>
